<?xml version="1.0" encoding="utf-8"?>
<!-- Generator: Adobe Illustrator 16.0.0, SVG Export Plug-In . SVG Version: 6.00 Build 0)  -->
<!DOCTYPE svg PUBLIC "-//W3C//DTD SVG 1.1//EN" "http://www.w3.org/Graphics/SVG/1.1/DTD/svg11.dtd">
<svg version="1.1" id="Layer_1" xmlns="http://www.w3.org/2000/svg" xmlns:xlink="http://www.w3.org/1999/xlink" x="0px" y="0px"
	 width="250px" height="250px" viewBox="0 0 250 250" enable-background="new 0 0 250 250" xml:space="preserve"
	 >
<g id="bear">	
	
<polygon opacity="0.1" fill="#E3D6CD" points="2.095,164.994 34.585,186.513 102.517,202.125 148.086,192.42 192.391,197.062 
	230.787,186.935 250.121,172.167 231.631,160.353 243.867,149.804 208.846,139.678 145.555,156.555 56.948,141.787 18.973,145.163 
	"/>

<polygon fill="#6B8898" points="1.975,166 1.975,177.75 34.75,199.25 34.464,186.247 "/>
<polygon fill="#83A3A6" points="34.464,186.247 34.75,199.25 102.25,215.5 102.396,201.859 "/>
<polygon fill="#E5DBC4" points="147.966,192.154 147.966,205.75 102.25,215.5 102.396,201.859 "/>
<polygon fill="#83A3A6" points="193.246,196.538 193.246,210.5 147.966,205.75 147.966,192.154 "/>
<polygon fill="#E5DBC4" points="230.667,186.669 230.667,199.25 193.246,210.5 193.246,196.538 "/>
<polygon fill="#F3ECE5" points="250,171.901 230.667,186.669 230.667,199.25 250,183.75 "/>
<polygon fill="#F3ECE5" points="243.747,149.538 243.747,163.25 240.334,165.725 231.511,160.087 "/>
<path opacity="0.5" fill="#5F6E80" d="M12.524,171.901l21.94,14.346l24.668,5.907c0,0,96.2-9.486,105.867-13.82
	s-28-20.703-28-20.703S15.168,174.222,11.444,171.901"/>
<path fill="#E5DBC4" d="M46.232,22c0,0-2.667,11-2,13.333S56.899,44.666,57.565,49c0,0,16.833,31.836,16.167,36.336
	c0,0,3.833,20.667,2.833,21.167c0,0,2.833,16.659,3.667,18.497c0,0,5.5,19.17,4.667,19.67c0,0,2.646,14.838-6.01,20.586
	c0,0-15.989,2.859-5.323,9.637c0,0,3.833,1.443,5.833,1.277c0,0,8.167-0.332,9.167,4.334c0,0,1.833,5.076,19,2.121
	c0,0,10.167,1.045,16-9.955l1.667,0.154c0,0-1.834,6.5,5.5,7c0,0,34.166,2.469,48.166-4.932c0,0,9.666-5.473,9.334-25.355
	c0,0,2.498-15.381-11.668-37.215c0,0-5.998-12.5-17.666-20.833c0,0-9.666-7.667-30.834-15.167c0,0-8.333-1.167-14.166-14.833
	l-5.833-10c0,0,12.5-1.667,1.167-11.667c0,0-1.667-1.667-12.167-3.667l-7.333-5c0,0-6.333-4.5-13.5-3.833c0,0-9.167,0.5-15.5-1.833
	L46.232,22z"/>
<path fill="#83A3A6" d="M46.125,22c0,0,4.143,9,3.143,11.5c0,0,8.5,11.75,11.5,12.5c0,0,32,46.75,35,46.75c0,0,9,16.25,8,20.5
	c0,0,8.5,35.25,2.75,45.5c0,0-3.25,11.785-6.25,16.143c0,0-6.5,7.518,2,8.438c0,0-11.798,2.744-15.774-5.543
	c0,0-0.945-1.484-9.648-1.886c0,0-14.186-3.884-3.007-9.205c0,0,10.179,0.804,10.804-13.946c0,0,1.875-7-3.75-24.75
	c0,0-3.369-10.743-4.435-21.497c0,0-2.69-26.003-6.315-31.253c0,0-10.494-21.625-12.685-26.25S44.125,35.333,44.125,35.333
	L46.125,22z"/>
<path fill="#83A3A6" d="M141.667,122.327c0,0-15.333,5.669-18,19.335c0,0-0.344,31.461-3.089,33.23l3.645-2.161
	c0,0,0.604,8.229,7.607,7.163c0,0-7.496-8.566,14.504-12.399c0,0-15.501-2-17.334-23C129,144.495,128.334,131.326,141.667,122.327z"
	/>
<path fill="#333333" d="M51.161,23.186c0,0-2.328,6.977-6.661,6.81L46.125,22L51.161,23.186z"/>
<path fill="#333333" d="M75.5,36.161c0,0,0,3.833,3.167,3.167c0,0,2-0.089,2.667-1.544C81.333,37.783,78.667,34.994,75.5,36.161z"/>
<path fill="#FFFFFF" d="M52.084,22.974c0,0,10.083,6.563,12.917,6.229c0,0,12.833,1.006,15.25,1.51c0,0,12.083,7.381,13.083,8.052
	c0,0,5.667,2.852,8.667,2.013c0,0,17.667,3.188,6.167,9.394c0,0-4.167,1.174-2.5,7.213c0,0,4.833,11.911,15.833,19.627
	c0,0,9.166,4.697,11.833,5.033c0,0,21.832,11.408,22.5,13.756c0,0,8.666,7.381,10,10.568c0,0,15,21.64,16.166,31.873
	c0,0,10.332,25.271-3,38.471c0,0,14.885-5.267,9.859-40.153c0,0-9.076-24.443-18.717-35.872c0,0-12.805-12.459-22.723-16.641
	c0,0-18.086-7.538-22.919-9.718c0,0-8.531-8.314-9.182-13.299l-5.419-9.352c0,0,12.065-1.681,1.167-11.743
	c0,0-6.333-2.442-13.699-4.742c0,0-9.643-7.696-15.504-7.746c0,0-12.695-0.09-13.362-0.258S52.084,22.974,52.084,22.974z"/>
</g>

<animate 
           xlink:href="#bear"
           attributeName="x" 
           from="50"
           to="425" 
           dur="5s"
           begin="0s"
           repeatCount="indefinite"
           fill="freeze" 
           id="rect-anim"/>
		   
</svg>
