<?xml version="1.0" encoding="utf-8"?>
<!-- Generator: Adobe Illustrator 16.0.0, SVG Export Plug-In . SVG Version: 6.00 Build 0)  -->
<!DOCTYPE svg PUBLIC "-//W3C//DTD SVG 1.1//EN" "http://www.w3.org/Graphics/SVG/1.1/DTD/svg11.dtd">
<svg version="1.1" id="Layer_1" xmlns="http://www.w3.org/2000/svg" xmlns:xlink="http://www.w3.org/1999/xlink" x="0px" y="0px"
	 width="50px" height="50px" viewBox="0 0 50 50" enable-background="new 0 0 50 50" xml:space="preserve">
<g id="_x30_5-FULL-WHITE">
	
	<g id="Facebook_4_">
		<path fill="#FFFFFF" d="M26.621,7.498C15.993,7.498,7.39,16.099,7.39,26.73c0,10.624,8.603,19.229,19.231,19.229
			c10.627,0,19.23-8.605,19.23-19.229C45.852,16.099,37.248,7.498,26.621,7.498z M35.984,34.826c0,0.557-0.254,1.165-0.861,1.165
			h-4.707v-7.09h2.43l0.353-3.033h-2.782v-1.821c0-0.81,0.201-1.215,1.366-1.215h1.671v-2.633c-0.508-0.046-1.316-0.102-2.33-0.102
			c-2.123,0-3.741,1.319-3.741,3.699v2.073H24.85v3.033h2.532v7.09h-8.758c-0.554,0-0.859-0.608-0.859-1.165V18.279
			c0-0.56,0.305-1.016,0.859-1.016h16.55c0.557,0,0.859,0.456,0.859,1.016v16.547H35.984z"/>
	</g>
	
</g>
</svg>
