<?xml version="1.0" encoding="utf-8"?>
<!-- Generator: Adobe Illustrator 16.0.0, SVG Export Plug-In . SVG Version: 6.00 Build 0)  -->
<!DOCTYPE svg PUBLIC "-//W3C//DTD SVG 1.1//EN" "http://www.w3.org/Graphics/SVG/1.1/DTD/svg11.dtd">
<svg version="1.1" id="Layer_1" xmlns="http://www.w3.org/2000/svg" xmlns:xlink="http://www.w3.org/1999/xlink" x="0px" y="0px"
	 width="50px" height="50px" viewBox="0 0 50 50" enable-background="new 0 0 50 50" xml:space="preserve">
<g id="_x30_5-FULL-WHITE">
	
	<g id="Instagram_5_">
		<path fill="#FFFFFF" d="M23.484,27.387c0-1.975,1.622-3.545,3.543-3.545c1.974,0,3.594,1.57,3.594,3.545
			c0,1.973-1.62,3.541-3.594,3.541C25.06,30.98,23.484,29.359,23.484,27.387z"/>
		<path fill="#FFFFFF" d="M33.862,22.732c0,0.299-0.257,0.606-0.556,0.606h-1.873c-0.308,0-0.608-0.252-0.608-0.606V20.86
			c0-0.308,0.253-0.61,0.608-0.61h1.873c0.299,0,0.556,0.256,0.556,0.61V22.732z"/>
		<path fill="#FFFFFF" d="M32.242,25.868h2.124v8.453c0,0.302-0.051,0.656-0.404,0.656H20.046c-0.307,0-0.355-0.303-0.355-0.656
			v-8.453h2.123c-0.299,0-0.404,1.114-0.404,1.672c0,3.085,2.53,5.564,5.671,5.564c3.137,0,5.666-2.429,5.666-5.564
			C32.697,27.032,32.597,25.868,32.242,25.868z"/>
		<path fill="#FFFFFF" d="M26.52,8.206c-10.623,0-19.229,8.602-19.229,19.233c0,10.625,8.606,19.229,19.229,19.229
			c10.631,0,19.234-8.604,19.234-19.229C45.754,16.807,37.15,8.206,26.52,8.206z M36.391,34.473c0,1.213-1.064,2.023-2.275,2.023
			H19.941c-1.21,0-2.273-0.811-2.273-2.023V20.301c0-1.211,1.063-2.021,2.273-2.021h14.174c1.211,0,2.275,0.81,2.275,2.021V34.473z"
			/>
	</g>
	
</g>
</svg>
