<?xml version="1.0" encoding="utf-8"?>
<!-- Generator: Adobe Illustrator 16.0.0, SVG Export Plug-In . SVG Version: 6.00 Build 0)  -->
<!DOCTYPE svg PUBLIC "-//W3C//DTD SVG 1.1//EN" "http://www.w3.org/Graphics/SVG/1.1/DTD/svg11.dtd">
<svg version="1.1" id="Layer_1" xmlns="http://www.w3.org/2000/svg" xmlns:xlink="http://www.w3.org/1999/xlink" x="0px" y="0px"
	 width="250px" height="250px" viewBox="0 0 250 250" enable-background="new 0 0 250 250" xml:space="preserve">
<path fill="#0E81AA" d="M6.054,129.331h240.952c0,0,5.891-58.348-47.308-99.089c0,0-71.531-59.261-152.031,4.667
	C47.667,34.909,5.274,66.824,6.054,129.331z"/>
<path fill="#FFFFFF" d="M144.706,110.973c0,0,23.844,2.768,6.005-17.09c0,0-11.962-7.903-17.227-7.666c0,0-23.313-2.828-16.592-7.66
	c6.723-4.832,24.396,2.325,27.317,2.586c2.922,0.26,12.662-12.122-17.469-14.903c0,0-42.061-10.307-9.439-15.371
	c0,0,25.252,8.986,27.01,2.11c1.759-6.877-23.406-16.946-31.759-19.938c-8.355-2.993-14.488-10.777-2.005-15.93
	c0,0-13.253,1.52-14.301,13.456c-1.049,11.936,17.198,5.156,24.775,14.373c7.577,9.215-15.74-9.094-22.875,7.286
	c0,0-4.569,5.397,3.301,10.73c7.867,5.333,33.372,7.963,30.862,9.142c-2.511,1.178-18.503-4.925-22.002,3.898
	c0,0-8.343,10.898,18.291,14.237c0,0,30.067,10.41,9.048,16.307l-5.87,3.398L144.706,110.973z"/>
<path fill="#0B3142" d="M6.053,122.902h240.953c0,0,5.891,58.348-47.309,99.09c0,0-71.531,59.261-152.031-4.668
	C47.667,217.324,5.273,185.409,6.053,122.902z"/>
<polygon fill="#D6D6D6" points="75.841,109.661 128.508,62.328 172.175,104.995 203.175,136.662 74.508,136.662 "/>
<polygon fill="#B7B7B7" points="76.333,109.662 128,62.329 116,98.329 "/>
<polygon fill="#FFFFFF" points="74,100.995 105.333,136.662 35.667,136.662 "/>
<polygon fill="#B7B7B7" points="35.667,136.662 66.333,119.995 74,100.995 "/>
<polygon fill="#FFFFFF" points="177.625,99.75 215.25,136.662 139.625,136.662 "/>
<polygon fill="#FFFFFF" points="142.125,122 156,136.662 127.125,136.662 "/>
<polygon fill="#BCBCBC" points="177.625,99.75 139.625,136.662 169.625,118.829 "/>
<polygon fill="#BCBCBC" points="142.125,122 140.75,128.25 127.125,136.662 "/>
<polygon fill="#13667A" points="35.667,136.559 74,182.229 105.333,136.559 "/>
<polygon fill="#4192A5" points="50.5,136.662 128.5,231.998 205.5,136.662 "/>
<polygon fill="#61ABBC" points="158.625,136.662 140.75,156.33 127.125,136.662 "/>
<polygon fill="#509EB5" points="139.625,136.662 158.625,136.662 149,147.33 "/>
<polygon fill="#318193" points="149,147.33 172.667,175.998 204.75,136.662 158.625,136.662 "/>
<polygon fill="#13667A" points="204.75,136.662 215.25,136.662 178.25,182.125 172.667,175.998 "/>
<polygon fill="#318193" points="47.667,136.662 79.667,174.333 105.333,136.662 "/>
</svg>
