<?xml version="1.0" encoding="utf-8"?>
<!-- Generator: Adobe Illustrator 16.0.0, SVG Export Plug-In . SVG Version: 6.00 Build 0)  -->
<!DOCTYPE svg PUBLIC "-//W3C//DTD SVG 1.1//EN" "http://www.w3.org/Graphics/SVG/1.1/DTD/svg11.dtd">
<svg version="1.1" id="Layer_1" xmlns="http://www.w3.org/2000/svg" xmlns:xlink="http://www.w3.org/1999/xlink" x="0px" y="0px"
	 width="280px" height="330px" viewBox="0 0 280 330" enable-background="new 0 0 280 330" xml:space="preserve">
<linearGradient id="SVGID_1_" gradientUnits="userSpaceOnUse" x1="140.4175" y1="331" x2="140.4175" y2="-4.166">
	<stop  offset="0" style="stop-color:#00486A"/>
	<stop  offset="1" style="stop-color:#012A29;stop-opacity:0"/>
</linearGradient>
<rect x="-2" y="-4.167" fill="url(#SVGID_1_)" width="284.834" height="335.167"/>
<path fill="#86BBD6" d="M22,54h81.5c0,0-4-13-17.5-12c0,0-16.5-34.5-43-4.5C43,37.5,23,37.5,22,54z"/>
<path fill="#86BBD6" d="M20,235.825h64c0,0-3.141-10.209-13.742-9.425c0,0-12.957-27.092-33.767-3.532
	C36.491,222.868,20.785,222.868,20,235.825z"/>
<path fill="#86BBD6" d="M207.254,176.629h59.196c0,0-2.905-9.441-12.711-8.716c0,0-11.983-25.059-31.232-3.268
	C222.507,164.645,207.98,164.645,207.254,176.629z"/>
<path fill="#F7E89D" d="M105.459,169.021h76.667l-36.334,148.666c0,0,0.334,4.334-2,4.334c-2.332,0-4.333-5.002-3.667-6.334
	C140.792,314.354,105.459,169.021,105.459,169.021z"/>
<polygon fill="#DDD38B" points="142.792,168.688 144.792,320.354 183.126,168.688 "/>
<g opacity="0.3">
	<g>
		<path fill="#C1B67A" d="M121.125,206.854c18.324-1.363,33.273-11.871,47.928-22.006c2.633-1.82,0.137-6.158-2.523-4.318
			c-13.795,9.541-28.11,20.037-45.404,21.324C117.931,202.092,117.907,207.094,121.125,206.854L121.125,206.854z"/>
	</g>
</g>
<g opacity="0.5">
	<g>
		<path fill="#C1B67A" d="M126.125,222.521c16.803-1.978,32.293-13.313,44.768-24.065c2.446-2.108-1.105-5.629-3.535-3.535
			c-11.299,9.74-25.965,20.806-41.232,22.601C122.963,217.895,122.927,222.898,126.125,222.521L126.125,222.521z"/>
	</g>
</g>
<path fill="#FAB28A" d="M165.667,234.332c0,0-4.001,8.667-2.167,11.667s6.168,3.5,7.834,1S175,233.665,165.667,234.332z"/>
<path fill="#EA997E" d="M166.841,234.316c0,0-2.659,11.828,0,13.298c2.659,1.469-7.002-0.609-3.255-7.81l2.081-5.475
	L166.841,234.316z"/>
<path fill="#FAD8BC" d="M172.259,238.021c0,0-3.631,5.623-1.86,8.793C172.168,249.982,173.852,238.191,172.259,238.021z"/>
<path fill="#F9B48B" d="M162.375,247.354l-0.438,3.021c0,0-14.063,5.938-9.75,14c0,0,3.375,5.938,9.688,0.313
	c0,0,6.75-3.438,6.813-5.25C168.751,257.626,169.688,249.771,162.375,247.354z"/>
<path fill="#EC9C78" d="M152.875,264.5c0,0-2.338-12.313,14.895-12.375c0,0-2.098-4.301-5.059-4.65l-0.836,2.65
	C161.875,250.125,146.5,257.25,152.875,264.5z"/>
<path fill="#F8D7BA" d="M160.063,257.75c0,0,3.672,4.125,2.648,5.313c0,0-3.023,2.625-5.398,2.5c0,0-3-3.75-2.25-5.125
	L160.063,257.75z"/>
<polygon fill="#EC9C78" points="163.875,267.109 158.307,266.855 162.493,264.361 "/>
<path fill="#EC9C78" d="M156.938,267.109c0,0-10.188-0.797-11.188,6.078c0,0-0.961-6.404,7.582-7.453l1.918,0.703L156.938,267.109z"
	/>
<path fill="#F9B48B" d="M163.875,267.438c0,0,3.75,8.313-13.938,10.5c0,0-7.636-2.391-2.162-8.477
	C147.775,269.461,151,266.313,163.875,267.438z"/>
<path fill="#FAD5B9" d="M153.5,269.461c0,0,3.063,4.039,2,5.602c0,0-3.063,1.75-5.438,1.5s-2.625-5.188-1.688-5.375
	C149.311,271.001,153.5,269.461,153.5,269.461z"/>
<path fill="#EC9C78" d="M160.313,277.938c0,0-11.813-1.375-12.125,4.25c0,0,0.438-3.313,2.063-4.25
	c1.625-0.937,2.444,0.535,4.754-0.92c0,0,3.745-1.25,3.913-1.328S160.688,277.438,160.313,277.938z"/>
<path fill="#F9B48B" d="M160.313,277.938c0,0,1.5,3.938-2.813,5.625c0,0-5.75,2.813-8.75,0c0,0-1.766-2.598,1.419-4.385
	C150.169,279.178,152.625,277.5,160.313,277.938z"/>
<path fill="#FAD5B9" d="M153.625,279.563c0,0,2.5,2.5,1.063,3.5c0,0-1.846,1.313-3.359,1.063c0,0-2.266-2.25-1.452-3.5
	L153.625,279.563z"/>
<path fill="#D68366" d="M115.5,220.667c0,0,5.5,9.209,1.833,22.021c0,0-0.667,11.146,5.167,17.146c0,0,0.667,16.339-1.5,16.753
	c0,0,9.833,7.914,10.5,9.914c0,0,4.5,9.833-13,12.833c0,0,3.667,2.333,16.167-5L123.5,245.501c0,0-4.167,2.332-2.167-8.834
	C121.333,236.667,121.667,225.667,115.5,220.667z"/>
<path fill="#EC9C78" d="M110.5,217.25c0,0,8,14.355,7,17.053c0,0-0.875,11.947-2.875,15.197c0,0-1.25,26.549,0,27.087
	c0,0,4.25,12.163,0.875,13.788c0,0-9.375,7.75-16.125,8.75l3.75,8l12.375-6.875l4.25-0.294l-1.458-0.625
	c0,0,11.854-2.365,13.01-6.933c0,0,5.781-4.943-10.26-15.317c0,0,3.291-10.448,1.458-17.247c0,0-8.179-8.543-4.443-20.212
	c0,0,1.353-10.169-0.123-12.108C117.934,227.514,116.542,217.801,110.5,217.25z"/>
<path fill="#F9B48B" d="M110.5,217.25c0,0-2.083,0.41-2.167,1.66s7.333,15.501,0,33.167c0,0-4,23.071-4.75,23.071
	c0,0-1.834,4.433-12.417,9.008l8.208,15.529c0,0,17.036-6.609,17.414-12.197c0,0-0.648-9.014-2.468-11.801
	c0,0-0.406-24.563,0.305-26.188s3.392-15.022,2.789-17.034C116.811,230.454,112,217.684,110.5,217.25z"/>
<path fill="#FAD8BC" d="M108.333,218.91c0,0-1.75,2.24,1.083,8.072h1.202L108.333,218.91z"/>
<path fill="#FBD1A1" d="M109.25,227.253c0,0-0.167,4.25,0.5,5.25c0,0-0.602,4.083-0.259,5.083c0,0-0.893,10.148-1.858,10.741
	c0,0-4.299,11.425-3.799,14.509c0,0-2.5,10.334-3.167,11.667c0,0-1.75,3.095-2.667,3.631l-8,3.476l1,2.478
	c0,0,8.035-2.69,11.893-7.804c0,0,3.654-9.803,4.583-20.025c0,0,4.784-17.347,3.904-18.51s0.558-9.889-0.928-10.494
	C108.966,226.648,109.25,227.253,109.25,227.253z"/>
<polygon fill="#FFFFFF" points="89.5,279.563 82,283.523 89.5,298.313 96.812,295.221 "/>
<polygon fill="#E0E0E0" points="96.707,294.596 89.395,297.688 97.395,313.625 104.229,310.375 "/>
<polygon fill="#323F47" points="89.406,298.063 24.625,329.188 71,329.188 98.625,315.688 "/>
<polygon fill="#3F4C59" points="81.125,281.5 89.395,297.688 24,330 0,330 0,320.5 "/>
<circle fill="#D7E045" cx="77.25" cy="294.125" r="2.5"/>
<circle fill="#8FCAC1" cx="95.789" cy="198.248" r="4.789"/>
<circle fill="#8EC7BD" cx="107.336" cy="205.7" r="3.298"/>
<circle fill="#548397" cx="187.352" cy="197.575" r="5.685"/>
<circle fill="#8EC2BB" cx="133.368" cy="233.94" r="4.886"/>
<circle fill="#F7DF50" cx="189" cy="64.004" r="35"/>
<polygon fill="#F7DF50" points="154,42.005 147.667,62.005 140,47.671 "/>
<polygon fill="#F7DF50" points="174,27.338 157,39.621 159.333,25.241 "/>
<polygon fill="#F7DF50" points="189,16.005 177.667,25.241 197.667,25.241 "/>
<polygon fill="#F7DF50" points="219,27.005 205.667,29.005 220.333,42.005 "/>
<polygon fill="#F7DF50" points="224,45.338 228.667,64.005 236.852,52.005 "/>
<polygon fill="#F7DF50" points="228.333,68.005 222.333,85.909 234.333,80.671 "/>
<polygon fill="#F7DF50" points="218.667,91.005 216.333,103.671 202.333,101.671 "/>
<path fill="#8EC2BB" d="M89.17,149.502c0,0-26-48.328,20.333-81.331c0,0,54.999-39.189,95.333,29.571
	c0,0,12.416,35.424-10.084,60.674l-0.25,26.417c0,0-6,10.832-13.166,0v-15.5l-3.666,0.166c0,0,0.832,9.5-4.668,13.5l0.248,36.076
	c0,0-2.747,5.743-7.081,0L165.514,187c0,0-5.51,1.334-10.844-1.666l-0.166,54.832c0,0-1.334,3.666-3.834,0l0.166-58.332
	c0,0-5.666-6.666-2.832-12.334l-7.5,0.166l-0.667,49.41c0,0-4.869,10.744-10.851,0V169.5l-19.273,0.334V200
	c0,0-3.042,2.162-4.042-1.586v-30.58l-4.422-3.334V186c0,0-4.744,8.668-10.744,0L89.17,149.502z"/>
<path fill="#E1D69B" d="M98.697,77.391c0,0,4.969,11.787,15.803,3.121c0,0,3.833-0.372,4.5,2.231c0,0,6.833,0.27,4.833-11.564
	c0,0,2.833-3.667,9-1c0,0,6.771,4.955,9.167-4.667c0,0,4.701-5.313,3.077-8.349C145.077,57.163,115.061,57.27,98.697,77.391z"/>
<path fill="#E1D69B" d="M111,91.672c0,0,4.333-3.001,6.5,12c0,0,3.5,2.333,11.833,0c0,0,9.833,4.167,13.167,3.167
	c0,0,7,13.333-6.667,6.833c0,0-5.333-1.667-6.5,0.5c0,0-0.708,2.667-1.688,2.667s-7.813,2.333-3.979,12c0,0,7.667,6,7.833,11.833
	c0,0,8.5,10,5.833,13.333c0,0-12.833,17.333-16-2.833c0,0,0.5-7.667-4.833-9.333s-9.667-2-11.5-12.333s-14.333-3.833-12.167-4
	c0,0-13.832,8.167-6.5-11.5c0,0,3.119-6.348,0.833-10.334c0,0,2.167-4.166,7.833-1s12.5-1.859,12.667-5.096
	C107.832,94.339,111,91.672,111,91.672z"/>
<path fill="#E1D69B" d="M141.833,124.505c0,0-7.167-2.333-6.667,0c0,0-1,2.833,0.833,4s0.5,3.666,0,4.333s0.5,2.167,4,2
	s3.334,0.639,3.167,1.903c-0.167,1.264,2.5,1.764,4.5-2.736s4.666-1.167,4.666,0.167s5.834-0.333,3.667-5.333
	s-5.167,1.016-6.5-2.659c-1.333-3.675-7-1.508-7-1.508L141.833,124.505z"/>
<path fill="#E1D69B" d="M172.625,63.42c0,0,0.209,10.821,5.042,13.537c0,0,3.126,6.713-2.521,14.048c0,0,0.854,7.334,8.521,10.834
	c0,0,1.793,8.5-5.521,8c0,0-23.813,12.47,3.521,25.902c0,0,5.39,3.765,2.194,10.932c0,0-8.528,10.5,5.472,21l6.285,5l0.135-14.256
	c0,0,15.207-21.294,13.462-40.37C209.215,118.046,209.584,81.333,172.625,63.42z"/>
<path fill="#E1D69B" d="M121,154.172c0,0-1.5,11.333,8.833,10c0,0,6-0.666,1.5,13.834c0,0-2,19.334,0.5,18.5
	c0,0,4.134-1.058,3.061-19.877c0,0,2.638-20.6,2.039-22.112C136.334,153.005,121,154.172,121,154.172z"/>
</svg>
