<?xml version="1.0" encoding="utf-8"?>
<!-- Generator: Adobe Illustrator 16.0.0, SVG Export Plug-In . SVG Version: 6.00 Build 0)  -->
<!DOCTYPE svg PUBLIC "-//W3C//DTD SVG 1.1//EN" "http://www.w3.org/Graphics/SVG/1.1/DTD/svg11.dtd">
<svg version="1.1" id="Layer_1" xmlns="http://www.w3.org/2000/svg" xmlns:xlink="http://www.w3.org/1999/xlink" x="0px" y="0px"
	 width="300px" height="230px" viewBox="0 0 300 230" enable-background="new 0 0 300 230" xml:space="preserve">
<rect fill="#ACC7CC" width="300" height="230"/>
<path fill="#E8F4F6" d="M88.064,139.979c0,0,8.081-11.561,3.615-14.5c0,0-0.638-2.938-5.316-3.364c0,0-20.628-0.212-14.036-8.293
	c0,0,10.425-3.699,32.538-1.065c0,0,18.075-5.74,1.914-15.523l-32.537-1.174c0,0-11.06-6.463,4.04-8.705
	c0,0,14.037-0.679,7.869-12.519c0,0-17.652,0.633-16.801-3.583c0,0-5.953-6.989,9.782-6.348c0,0,22.968,1.068,9.145-10.203
	c0,0-9.059-3.828,2.594-4.891h32.281c0,0,12.762-12.344-31.26-8.936c0,0-9.782-4.883,0.426-8.711h25.093
	c0,0,9.571-2.976-2.764-7.655h-59.12c0,0-7.868-4.466,0-8.294l58.055-0.851c0,0,10.421-10.633-12.971-9.994
	c0,0-24.881,1.046-16.588-3.412c8.294-4.457,155.877,0,155.877,0s5.529,5.964-3.189,6.177l-28.708-0.852
	c0,0-5.954,3.598-1.063,6.159l24.455,1.072c0,0,7.442,11.271-29.134,5.743c0,0-4.679,7.018,7.442,6.591l49.336-0.213
	c0,0,6.169,3.349,0,7.098h-38.063c0,0-4.043,7.576,16.162,4.812c0,0,4.038,3.386,0.209,6.797h-16.371c0,0-3.617,2.773,0,3.624
	l25.942,0.851c0,0,8.293,5.104-6.38,5.104c0,0-15.523,4.449-2.126,9.986c0,0,11.481-1.479,12.972,1.286c0,0,4.891,6.591-7.02,6.804
	c0,0-15.736-1.701-14.672,8.506c0,0-0.639,8.304,17.863,5.854h31.476c0,0,7.015,6.69-2.13,9.88h-22.965
	c0,0-9.783,5.311-2.127,13.076c0,0,2.127,3.296,5.528,2.446h30.622c0,0,7.443,5.116,0,8.196c0,0-24.667,0.95-25.305,0.95
	c-0.641,0-8.297,1.132-7.445,5.244s6.381,15.899,6.381,15.899l-169.064,5.646l-7.231-5.646L88.064,139.979z"/>
<linearGradient id="SVGID_1_" gradientUnits="userSpaceOnUse" x1="434.3477" y1="-22.0469" x2="406.8008" y2="-69.7595" gradientTransform="matrix(1 0 0 -1 -246 40)">
	<stop  offset="0" style="stop-color:#F37444"/>
	<stop  offset="0.021" style="stop-color:#F37044"/>
	<stop  offset="0.1041" style="stop-color:#F16044"/>
	<stop  offset="0.1897" style="stop-color:#F15644"/>
	<stop  offset="0.2809" style="stop-color:#F05244"/>
	<stop  offset="0.6685" style="stop-color:#E74925"/>
	<stop  offset="0.8876" style="stop-color:#D32027"/>
	<stop  offset="1" style="stop-color:#931A1D"/>
</linearGradient>
<polygon fill="url(#SVGID_1_)" points="138.997,67.669 120.496,86.489 220.979,98.61 213.002,76.281 "/>
<polygon fill="#543A1F" points="189.291,64.904 188.229,67.669 202.264,69.582 202.264,66.393 "/>
<polygon fill="#ACA9A6" points="169.744,92.641 158.82,142.693 202.979,149.26 212.814,97.302 "/>
<polygon fill="#784F2B" points="186.993,73.254 200.568,74.834 202.264,69.582 188.229,67.669 "/>
<polygon fill="#D0D4D4" points="127.664,87.354 116.348,136.093 159.516,143.046 169.792,92.435 "/>
<rect x="151.087" y="109.748" transform="matrix(0.9841 0.1774 -0.1774 0.9841 24.8511 -25.7912)" fill="#AD7D4E" width="11.113" height="32.635"/>
<rect x="162.065" y="111.18" transform="matrix(0.9841 0.1776 -0.1776 0.9841 25.396 -27.8962)" fill="#774E2B" width="12.842" height="33.396"/>
<polyline fill="#593C27" points="143.78,142.343 148.438,143.479 153.959,109.756 177.764,112.939 172.271,145.395 175.468,145.395 
	180.57,111.528 152.499,107.223 143.78,141.21 "/>
<polygon fill="#565954" points="166.219,102.12 166.219,107.223 180.738,109.599 181.634,104.247 "/>
<polygon fill="#808384" points="152.18,99.743 152.18,104.848 166.829,107.223 167.73,101.871 "/>
<g>
	<g>
		<path fill="#593C27" d="M129.112,110.865c1.925-5.634,8.339-7.14,13.228-4.029c3.844,2.446,1.426,9.777-0.2,13.071
			c-0.709,1.435-4.475-0.683-5.723-0.873c-2.498-0.384-5.011-0.484-7.527-0.624c-3.089-0.172-1.141-3.891-0.508-5.556
			c0.389-1.023,0.406-2,1.725-1.724c1.281,0.269,2.55,0.407,3.853,0.547c2.104,0.227,4.112,0.646,6.187,1.04
			c1.26,0.239,3.13,0.699,4.344,0.071c2.702-1.399,0.576-4.904-0.833-6.357c-1.414-1.459-4.896-3.702-6.573-1.511
			c-0.915,1.195-0.463,3.591-0.377,4.938c0.194,3.061-0.845,6.135-1.701,9.035c0.328,0.045,0.655,0.09,0.982,0.133
			c-0.587-4.825,2.828-8.935,2.871-13.715c0.006-0.645-0.994-0.645-1,0c-0.043,4.788-3.462,8.853-2.871,13.715
			c0.065,0.537,0.812,0.711,0.982,0.134c0.836-2.834,1.836-5.838,1.762-8.831c-0.027-1.092-0.14-2.172-0.121-3.267
			c0.034-2.047,1.271-2.31,2.922-1.611c1.951,0.826,5.058,3.539,4.012,5.948c-0.786,1.811-6.442-0.134-7.878-0.406
			c-2.353-0.446-4.813-0.656-7.188-0.975c-1.28-0.172-1.677,1.444-1.969,2.338c-0.769,2.351-3.209,6.602,0.827,7
			c2.996,0.297,6.312-0.029,9.188,0.93c1.387,0.462,3.277,1.726,4.77,1.002c1.06-0.514,1.487-2.78,1.774-3.745
			c0.554-1.86,1.147-3.91,1.33-5.851c0.434-4.608-3.402-6.901-7.519-7.359c-4.651-0.518-8.25,1.934-9.732,6.269
			C127.938,111.211,128.905,111.472,129.112,110.865L129.112,110.865z"/>
	</g>
</g>
<g>
	<g>
		<path fill="#593C27" d="M184.625,118.818c1.145-5.803,7.219-8.312,12.52-5.869c4.191,1.931,2.683,8.837,1.815,12.381
			c-0.612,2.51-3.392,0.574-5.078,0.546c-2.812-0.048-5.582,0.156-8.379,0.379c-3.147,0.25-1.851-3.049-1.411-5.026
			c0.151-0.684,0.166-2.371,1.213-2.373c1.395-0.002,2.777,0.095,4.182,0.056c3.279-0.089,7.529,1.071,10.595-0.285
			c2.858-1.267-0.308-5.185-1.575-6.18c-1.163-0.914-5.425-3.2-6.57-1.021c-0.764,1.454-0.319,3.197-0.021,4.728
			c0.635,3.254,0.155,6.455-0.339,9.697c0.32,0,0.645,0,0.965,0c-1.209-4.658,1.6-9.146,1.016-13.847c-0.078-0.631-1.078-0.639-1,0
			c0.596,4.799-2.223,9.322-0.979,14.11c0.116,0.451,0.888,0.507,0.965,0c0.429-2.805,1.083-5.889,0.621-8.723
			c-0.208-1.273-0.515-2.52-0.634-3.809c-0.213-2.333,1.873-2.02,3.222-1.555c1.472,0.507,6.968,4.868,3.217,5.946
			c-2.116,0.606-4.729-0.006-6.889-0.117c-1.442-0.076-2.913,0.064-4.356,0.102c-0.93,0.023-1.979-0.234-2.896-0.083
			c-1.349,0.224-1.353,1.657-1.617,2.748c-0.399,1.647-0.901,3.521-0.726,5.228c0.148,1.448,1.945,1.444,3.021,1.405
			c3.002-0.108,6.221-0.896,9.188-0.194c0.974,0.23,3.58,1.241,4.455,0.211c1.902-2.246,1.615-7.06,1.748-9.828
			c0.222-4.625-4.522-6.443-8.379-6.352c-4.658,0.112-7.963,2.949-8.854,7.461C183.536,119.184,184.5,119.451,184.625,118.818
			L184.625,118.818z"/>
	</g>
</g>
<rect x="107.744" y="142.422" transform="matrix(-0.9895 -0.1446 0.1446 -0.9895 296.7686 309.9196)" fill="#593C27" width="103.805" height="3.507"/>
<ellipse fill="#593C27" cx="154.995" cy="125.479" rx="1.644" ry="1.668"/>
<path opacity="0.8" fill="#449599" enable-background="new    " d="M-80.787,135.66v133.98H302V127.636c0,0-3.402-0.479-2.553-4.731
	c0,0-22.967,27.934-39.555,0.57c0,0-17.227,25.537-38.916,1.133c0,0-15.523,24.67-39.343,0c0,0-22.228,26.91-38.563-3.615
	c0,0-15.028,30.695-38.845,2.482c0,0-22.753,28.354-39.128-2.482c0,0-19.777,29.347-40.405,0c0,0-13.61,28.355-39.979,2.482
	c0,0-15.95,23.887-37.641,0.707c0,0-13.186,14.889-25.732,10.633L-80.787,135.66z"/>
<path opacity="0.8" fill="#3191AF" enable-background="new    " d="M-82.063,148.334v133.979h382.788V140.309
	c0,0-3.402-0.479-2.553-4.732c0,0-22.968,27.934-39.555,0.568c0,0-17.227,25.541-38.917,1.135c0,0-15.521,24.671-39.341,0
	c0,0-22.229,26.912-38.563-3.614c0,0-15.028,30.694-38.844,2.479c0,0-22.755,28.356-39.13-2.479c0,0-19.776,29.345-40.405,0
	c0,0-13.611,28.354-39.98,2.479c0,0-15.949,23.888-37.641,0.709c0,0-13.185,14.889-25.731,10.633L-82.063,148.334z"/>
<path fill="#1372A1" d="M-80.787,161.448v133.979H302V153.423c0,0-3.402-0.478-2.553-4.731c0,0-22.967,27.933-39.555,0.568
	c0,0-17.228,25.539-38.916,1.135c0,0-15.523,24.67-39.344,0c0,0-22.227,26.91-38.563-3.617c0,0-15.028,30.695-38.845,2.482
	c0,0-22.753,28.355-39.128-2.482c0,0-19.777,29.349-40.405,0c0,0-13.61,28.356-39.979,2.482c0,0-15.95,23.889-37.641,0.708
	c0,0-13.186,14.888-25.732,10.634L-80.787,161.448z"/>
<ellipse fill="#E8F4F6" cx="22.565" cy="68.944" rx="4.254" ry="4.041"/>
<ellipse fill="#E8F4F6" cx="53.614" cy="90.43" rx="6.38" ry="5.628"/>
<ellipse fill="#E8F4F6" cx="22.14" cy="104.159" rx="5.104" ry="5.691"/>
<ellipse fill="#E8F4F6" cx="278.818" cy="104.522" rx="4.467" ry="3.74"/>
<ellipse fill="#E8F4F6" cx="54.677" cy="114.493" rx="5.316" ry="4.645"/>
<ellipse fill="#E8F4F6" cx="56.591" cy="58.099" rx="5.529" ry="4.678"/>
<ellipse fill="#E8F4F6" cx="35.963" cy="28.477" rx="5.316" ry="5.254"/>
<ellipse fill="#E8F4F6" cx="67.224" cy="40.874" rx="5.104" ry="4.466"/>
<ellipse fill="#E8F4F6" cx="30.647" cy="45.339" rx="5.104" ry="4.892"/>
<path fill="#E8F4F6" d="M274.354,68.806c0,3.33-2.953,6.029-6.596,6.029c-3.638,0-6.591-2.699-6.591-6.029
	c0-3.33,2.953-6.029,6.591-6.029C271.4,62.777,274.354,65.476,274.354,68.806z"/>
<ellipse fill="#E8F4F6" cx="261.596" cy="51.932" rx="4.252" ry="4.466"/>
<ellipse fill="#E8F4F6" cx="264.783" cy="18.331" rx="5.742" ry="4.892"/>
</svg>
