<?xml version="1.0" encoding="utf-8"?>
<!-- Generator: Adobe Illustrator 16.0.0, SVG Export Plug-In . SVG Version: 6.00 Build 0)  -->
<!DOCTYPE svg PUBLIC "-//W3C//DTD SVG 1.1//EN" "http://www.w3.org/Graphics/SVG/1.1/DTD/svg11.dtd">
<svg version="1.1" id="Layer_1" xmlns="http://www.w3.org/2000/svg" xmlns:xlink="http://www.w3.org/1999/xlink" x="0px" y="0px"
	 width="50px" height="50px" viewBox="0 0 50 50" enable-background="new 0 0 50 50" xml:space="preserve">
<g id="_x30_5-FULL-WHITE">
	<g id="Vimeo_5_">
		<path fill="#FFFFFF" d="M156.314,8.206c-10.627,0-19.23,8.602-19.23,19.233c0,10.625,8.604,19.229,19.23,19.229
			s19.228-8.604,19.228-19.229C175.542,16.807,166.941,8.206,156.314,8.206z M161.829,30.573c-2.53,3.24-4.653,4.86-6.427,4.86
			c-1.06,0-1.972-0.961-2.732-2.987c-0.508-1.821-1.013-3.644-1.521-5.414c-0.552-1.975-1.165-2.985-1.77-2.985
			c-0.151,0-0.606,0.303-1.468,0.857l-0.859-1.109c0.911-0.81,1.819-1.57,2.681-2.38c1.216-1.063,2.124-1.57,2.736-1.673
			c1.464-0.15,2.324,0.862,2.678,2.936c0.355,2.227,0.61,3.644,0.761,4.202c0.406,1.873,0.863,2.785,1.371,2.785
			c0.4,0,0.956-0.61,1.77-1.825c0.756-1.212,1.162-2.126,1.264-2.782c0.099-1.063-0.304-1.57-1.264-1.57
			c-0.457,0-0.912,0.103-1.369,0.307c0.912-2.935,2.681-4.352,5.262-4.305c1.925,0.052,2.833,1.268,2.686,3.644
			C165.525,25.007,164.258,27.484,161.829,30.573z"/>
	</g>
	
	<g id="Twitter_5_">
		<path fill="#FFFFFF" d="M26.254,8.206c-10.631,0-19.231,8.602-19.231,19.233c0,10.625,8.601,19.229,19.231,19.229
			c10.623,0,19.226-8.604,19.226-19.229C45.479,16.807,36.877,8.206,26.254,8.206z M33.589,23.339c0,0.149,0,0.354,0,0.503
			c0,5.266-3.897,11.34-11.08,11.34c-2.18,0-4.255-0.66-5.974-1.771c0.303,0.048,0.606,0.048,0.912,0.048
			c1.819,0,3.492-0.658,4.809-1.72c-1.725-0.051-3.141-1.165-3.648-2.781c0.255,0.049,0.508,0.049,0.708,0.049
			c0.36,0,0.761-0.049,1.067-0.151c-1.775-0.354-3.09-1.975-3.09-3.896v0.048c0.51,0.307,1.062,0.457,1.721,0.507
			c-1.063-0.709-1.771-1.923-1.771-3.339c0-0.708,0.205-1.417,0.504-2.022c1.93,2.427,4.763,3.997,7.998,4.148
			c-0.051-0.305-0.099-0.607-0.099-0.914c0-2.172,1.717-3.997,3.896-3.997c1.11,0,2.126,0.507,2.833,1.266
			c0.908-0.204,1.722-0.502,2.481-0.958c-0.306,0.908-0.916,1.719-1.725,2.227c0.809-0.102,1.517-0.307,2.227-0.606
			C35.004,22.071,34.352,22.779,33.589,23.339z"/>
	</g>
	
</g>
</svg>
