<svg version="1.1" id="Layer_1" xmlns="http://www.w3.org/2000/svg" xmlns:xlink="http://www.w3.org/1999/xlink" x="0px" y="0px"
     width="340px" height="333px" viewBox="0 0 340 333" enable-background="new 0 0 340 333" xml:space="preserve">

  <path class="path" fill="#FFFFFF" stroke="#ffffff" stroke-width="3" stroke-miterlimit="10" d= "M55.63,33.716H42.505v34.922h-5.244V33.716H24.224v-4.717H55.63V33.716, M65.679,43.589c1.27-1.465,2.622-2.553,4.058-3.267c1.436-0.713,2.934-1.069,4.497-1.069c6.504,0,9.756,3.535,9.756,10.605
		v18.779h-5.156V50.122c0-2.363-0.415-4.058-1.245-5.083c-0.831-1.025-2.183-1.538-4.058-1.538c-2.598,0-5.215,1.523-7.852,4.57
		v20.566H60.61V28.999h5.068V43.589, M109.624,65.737c-2.676,2.402-6.035,3.604-10.078,3.604c-1.387,0-2.671-0.201-3.853-0.601
		c-1.182-0.4-2.212-0.962-3.091-1.685c-0.879-0.722-1.567-1.592-2.065-2.607c-0.498-1.015-0.747-2.148-0.747-3.398
		c0-6.719,5.771-10.078,17.314-10.078h2.52c0-1.23-0.039-2.324-0.117-3.281c-0.078-0.957-0.332-1.762-0.762-2.417
		c-0.43-0.654-1.113-1.152-2.051-1.494c-0.938-0.341-2.256-0.513-3.955-0.513c-4.531,0-6.875,1.631-7.031,4.893h-5.156
		c0.371-5.937,4.531-8.906,12.48-8.906c1.797,0,3.418,0.157,4.863,0.469c1.445,0.313,2.671,0.879,3.677,1.699
		s1.782,1.934,2.329,3.34s0.82,3.193,0.82,5.361v18.516h-5.098V65.737z M109.624,61.108v-6.387h-3.545
		c-7.402,0-11.104,2.012-11.104,6.035c0,1.465,0.552,2.588,1.655,3.369c1.104,0.781,2.563,1.172,4.38,1.172
		c0.84,0,1.675-0.098,2.505-0.293c0.83-0.195,1.621-0.473,2.373-0.835c0.752-0.361,1.445-0.801,2.08-1.318
		C108.604,62.334,109.155,61.753,109.624,61.108, M127.319,43.589c1.27-1.465,2.622-2.553,4.058-3.267c1.436-0.713,2.935-1.069,4.497-1.069
		c6.504,0,9.756,3.535,9.756,10.605v18.779h-5.156V50.122c0-2.363-0.415-4.058-1.245-5.083s-2.183-1.538-4.058-1.538
		c-2.598,0-5.215,1.523-7.852,4.57v20.566h-5.068V39.956h5.068V43.589, M176.802,68.638h-6.064l-9.404-14.59l-3.193,3.223v11.367h-5.068V28.999h5.068V51.47l11.133-11.514h6.416L164.79,50.649
		L176.802,68.638, M68.652,101l-15.586,22.823v16.816h-5.273v-16.816L32.178,101h6.416l11.836,18.194L62.236,101H68.652, M84.326,111.254c2.07,0,3.936,0.342,5.596,1.025c1.66,0.684,3.076,1.67,4.248,2.959s2.07,2.861,2.695,4.717
		s0.938,3.965,0.938,6.328c0,2.383-0.322,4.506-0.967,6.371s-1.553,3.443-2.725,4.732s-2.588,2.27-4.248,2.943
		c-1.66,0.674-3.506,1.012-5.537,1.012c-2.012,0-3.843-0.332-5.493-0.996c-1.651-0.664-3.066-1.641-4.248-2.93
		c-1.182-1.289-2.1-2.867-2.754-4.732c-0.655-1.865-0.981-3.998-0.981-6.4c0-2.363,0.322-4.479,0.967-6.344s1.553-3.441,2.725-4.73
		s2.588-2.271,4.248-2.945C80.449,111.59,82.294,111.254,84.326,111.254z M84.326,137.299c1.211,0,2.319-0.23,3.325-0.689
		c1.006-0.459,1.865-1.152,2.578-2.08c0.713-0.928,1.27-2.08,1.67-3.457c0.4-1.377,0.601-2.973,0.601-4.789
		s-0.201-3.414-0.601-4.791c-0.4-1.377-0.957-2.529-1.67-3.457c-0.713-0.928-1.572-1.621-2.578-2.08
		c-1.006-0.459-2.114-0.688-3.325-0.688c-1.211,0-2.319,0.229-3.325,0.688c-1.006,0.459-1.871,1.152-2.593,2.08
		c-0.723,0.928-1.285,2.08-1.685,3.457c-0.4,1.377-0.601,2.975-0.601,4.791s0.2,3.412,0.601,4.789
		c0.4,1.377,0.962,2.529,1.685,3.457c0.722,0.928,1.586,1.621,2.593,2.08C82.007,137.068,83.115,137.299,84.326,137.299, M121.709,137.006c-2.559,2.891-5.43,4.336-8.613,4.336c-6.484,0-9.727-3.535-9.727-10.605v-18.779h5.156v18.516
		c0,1.191,0.103,2.207,0.308,3.047s0.522,1.523,0.952,2.051s0.981,0.908,1.655,1.143s1.479,0.352,2.417,0.352
		c2.871,0,5.488-1.533,7.852-4.6v-20.508h5.098v28.682h-5.098V137.006, M155.635,140.639v-5.83h6.123v5.83H155.635z M161.26,130.59h-5.244v-28.154h5.244V130.59z"/>
	
  
</svg>