<?xml version="1.0" encoding="utf-8"?>
<!-- Generator: Adobe Illustrator 16.0.0, SVG Export Plug-In . SVG Version: 6.00 Build 0)  -->
<!DOCTYPE svg PUBLIC "-//W3C//DTD SVG 1.1//EN" "http://www.w3.org/Graphics/SVG/1.1/DTD/svg11.dtd">
<svg version="1.1" id="Layer_1" xmlns="http://www.w3.org/2000/svg" xmlns:xlink="http://www.w3.org/1999/xlink" x="0px" y="0px"
	 width="1024px" height="290px" viewBox="0 0 1024 290" enable-background="new 0 0 1024 290" xml:space="preserve">
<polygon fill="#A0C2D8" points="324.313,63.567 356.649,44.594 373.477,46.575 393.439,26.282 416.866,44.925 431.22,41.955 
	453.163,56.968 465.371,60.268 479.063,76.271 489.685,77.92 500.84,88.809 324.313,87.324 "/>
<polygon fill="#BBD6E4" points="356.154,47.646 358.629,50.287 325.303,65.3 "/>
<polygon fill="#BBD5E3" points="392.944,28.509 402.018,34.778 389.975,42.267 394.429,33.458 375.621,47.646 "/>
<polygon fill="#BBD5E3" points="453.821,58.04 463.72,60.68 445.738,66.124 "/>
<polygon fill="#BBD5E3" points="402.018,86.417 419.011,86.417 443.758,77.508 422.888,87.371 "/>
<polygon fill="#8CB7D1" points="356.649,44.842 362.753,51.605 356.649,59.03 362.753,60.02 357.475,75.198 373.477,46.821 "/>
<polygon fill="#8BB7D1" points="355.165,63.65 329.098,79.323 338.172,79.323 "/>
<polygon fill="#8BB7D1" points="418.681,44.677 431.549,42.267 440.129,66.124 "/>
<polygon fill="#8BB7D1" points="465.795,61.094 465.795,71.981 472.629,73.218 461.906,83.942 479.063,76.519 "/>
<polygon fill="#8BB7D1" points="429.405,85.887 456.626,74.208 443.016,85.887 "/>
<polygon fill="#8BB7D1" points="418.681,50.121 422.888,65.3 409.277,82.458 439.303,67.939 419.341,50.121 "/>
<polygon fill="#8BB7D1" points="373.477,59.855 352.854,84.767 382.716,84.767 378.096,72.311 "/>
<polygon fill="#8BB7D1" points="394.924,52.761 379.416,72.022 384.366,84.767 401.194,84.767 407.463,67.444 "/>
<rect x="249" y="87.949" fill="#1372A1" width="506.816" height="56.788"/>
<linearGradient id="SVGID_1_" gradientUnits="userSpaceOnUse" x1="683.4082" y1="19.29" x2="683.4082" y2="-67.9492" gradientTransform="matrix(1 0 0 -1 -181 20)">
	<stop  offset="0" style="stop-color:#1B96B0;stop-opacity:0.6"/>
	<stop  offset="1" style="stop-color:#1390CF;stop-opacity:0.2"/>
</linearGradient>
<rect x="249" y="0.71" fill="url(#SVGID_1_)" width="506.816" height="87.239"/>
<polygon fill="#A0C2D8" points="249,65.63 281.336,46.656 298.164,48.636 318.126,28.344 341.554,46.987 355.907,44.018 
	377.849,59.03 390.057,62.33 403.751,78.333 414.371,79.982 425.528,90.871 249,89.386 "/>
<polygon fill="#BBD6E4" points="280.841,49.709 283.315,52.348 249.99,67.362 "/>
<polygon fill="#BBD5E3" points="317.632,30.571 326.706,36.84 314.662,44.33 319.116,35.521 300.309,49.709 "/>
<polygon fill="#BBD5E3" points="378.509,60.103 388.407,62.742 370.424,68.187 "/>
<polygon fill="#BBD5E3" points="326.706,88.479 343.698,88.479 368.445,79.57 347.575,89.434 "/>
<polygon fill="#8CB7D1" points="281.336,46.904 287.44,53.668 281.336,61.092 287.44,62.082 282.161,77.261 298.164,48.884 "/>
<polygon fill="#8BB7D1" points="279.851,65.712 253.785,81.385 262.859,81.385 "/>
<polygon fill="#8BB7D1" points="343.368,46.739 356.236,44.33 364.815,68.187 "/>
<polygon fill="#8BB7D1" points="390.481,63.156 390.481,74.043 397.316,75.281 386.593,86.004 403.751,78.581 "/>
<polygon fill="#8BB7D1" points="354.092,87.949 381.313,76.271 367.702,87.949 "/>
<polygon fill="#8BB7D1" points="343.368,52.183 347.575,67.362 333.964,84.52 363.99,70.001 344.028,52.183 "/>
<polygon fill="#8BB7D1" points="298.164,61.918 277.541,86.829 307.403,86.829 302.783,74.374 "/>
<polygon fill="#8BB7D1" points="319.611,54.823 304.103,74.085 309.052,86.829 325.88,86.829 332.149,69.506 "/>
<polygon fill="#A0C2D8" points="249,90.871 425.528,90.871 249,89.386 "/>
<polygon fill="#BCD3E5" points="755.28,92.403 744.186,66.289 715.726,44.512 691.969,58.865 682.813,73.713 668.213,64.557 
	651.383,71.238 644.703,78.168 620.698,93.263 "/>
<polygon fill="#C6DAE7" points="719.686,50.204 719.686,60.35 729.831,60.35 715.479,78.91 732.802,64.557 735.771,72.229 
	741.215,66.784 "/>
<polygon fill="#C6DAE7" points="628.616,90.294 649.156,76.93 635.545,90.294 638.887,85.344 "/>
<polygon fill="#C6DAE7" points="691.969,62.825 682.318,80.642 685.536,76.93 687.144,78.91 689.741,73.713 "/>
<polygon fill="#9EC0D7" points="700.631,64.557 693.207,66.289 691.969,86.582 715.479,48.784 708.798,53.668 706.569,53.668 "/>
<polygon fill="#9FC1D8" points="711.271,59.36 711.271,68.888 701.373,78.91 701.373,92.403 711.271,92.403 708.798,82.127 
	715.479,73.96 "/>
<polygon fill="#9EC0D7" points="743.194,67.683 734.78,78.91 728.348,78.91 715.479,88.562 725.625,85.344 736.76,86.582 
	738.74,78.91 742.205,90.294 752.848,90.294 "/>
<polygon fill="#9EC0D7" points="669.301,65.24 672.418,76.93 678.11,75.881 676.131,80.642 659.304,74.703 653.61,84.849 
	646.682,81.88 637.527,93.156 673.656,92.273 685.04,87.819 678.854,83.612 678.358,80.642 682.813,73.713 "/>
<path opacity="0.7" fill="#6692A3" d="M456.626,100.224c0,0,3.079-3.079,7.939,0C464.565,100.224,460.839,99.252,456.626,100.224z"
	/>
<path opacity="0.8" fill="#6692A3" d="M470.56,105.045c0,0,4.268-4.268,11.006,0C481.565,105.045,476.399,103.698,470.56,105.045z"
	/>
<path opacity="0.7" fill="#6692A3" d="M486.56,99.789c0,0,2.449-2.449,6.316,0C492.875,99.789,489.911,99.016,486.56,99.789z"/>
<path opacity="0.9" fill="#6692A3" d="M496.56,108.045c0,0,4.268-4.268,11.006,0C507.565,108.045,502.399,106.698,496.56,108.045z"
	/>
<path opacity="0.9" fill="#6692A3" d="M443.56,109.045c0,0,4.268-4.268,11.006,0C454.565,109.045,449.399,107.698,443.56,109.045z"
	/>
<path fill="#6692A3" d="M470.184,112.414c0,0,4.801-4.801,12.382,0C482.565,112.414,476.754,110.898,470.184,112.414z"/>
<path opacity="0.6" fill="#6692A3" d="M473.184,97.301c0,0,1.835-1.835,4.733,0C477.917,97.301,475.695,96.721,473.184,97.301z"/>
<path opacity="0.7" fill="#6692A3" d="M532.626,99.224c0,0,3.079-3.079,7.939,0C540.565,99.224,536.839,98.252,532.626,99.224z"/>
<path opacity="0.8" fill="#6692A3" d="M546.56,104.045c0,0,4.268-4.268,11.006,0C557.565,104.045,552.399,102.698,546.56,104.045z"
	/>
<path opacity="0.7" fill="#6692A3" d="M562.56,98.789c0,0,2.448-2.449,6.315,0C568.875,98.789,565.91,98.016,562.56,98.789z"/>
<path opacity="0.9" fill="#6692A3" d="M572.56,107.045c0,0,4.268-4.268,11.006,0C583.565,107.045,578.399,105.698,572.56,107.045z"
	/>
<path opacity="0.9" fill="#6692A3" d="M519.56,108.045c0,0,4.268-4.268,11.006,0C530.565,108.045,525.399,106.698,519.56,108.045z"
	/>
<path fill="#6692A3" d="M546.184,111.414c0,0,4.801-4.801,12.382,0C558.565,111.414,552.754,109.898,546.184,111.414z"/>
<path opacity="0.6" fill="#6692A3" d="M549.184,96.301c0,0,1.836-1.835,4.733,0C553.917,96.301,551.695,95.721,549.184,96.301z"/>
<path opacity="0.7" fill="#6692A3" d="M610.626,99.224c0,0,3.079-3.079,7.939,0C618.565,99.224,614.839,98.252,610.626,99.224z"/>
<path opacity="0.8" fill="#6692A3" d="M624.56,104.045c0,0,4.268-4.268,11.006,0C635.565,104.045,630.399,102.698,624.56,104.045z"
	/>
<path opacity="0.7" fill="#6692A3" d="M640.56,98.789c0,0,2.448-2.449,6.315,0C646.875,98.789,643.91,98.016,640.56,98.789z"/>
<path opacity="0.9" fill="#6692A3" d="M650.56,107.045c0,0,4.268-4.268,11.006,0C661.565,107.045,656.399,105.698,650.56,107.045z"
	/>
<path opacity="0.9" fill="#6692A3" d="M597.56,108.045c0,0,4.268-4.268,11.006,0C608.565,108.045,603.399,106.698,597.56,108.045z"
	/>
<path fill="#6692A3" d="M624.184,111.414c0,0,4.801-4.801,12.382,0C636.565,111.414,630.754,109.898,624.184,111.414z"/>
<path opacity="0.6" fill="#6692A3" d="M627.184,96.301c0,0,1.836-1.835,4.733,0C631.917,96.301,629.695,95.721,627.184,96.301z"/>
<path opacity="0.7" fill="#6692A3" d="M685.626,98.224c0,0,3.079-3.079,7.939,0C693.565,98.224,689.839,97.252,685.626,98.224z"/>
<path opacity="0.8" fill="#6692A3" d="M699.56,103.045c0,0,4.268-4.268,11.006,0C710.565,103.045,705.399,101.698,699.56,103.045z"
	/>
<path opacity="0.7" fill="#6692A3" d="M715.56,97.789c0,0,2.448-2.449,6.315,0C721.875,97.789,718.91,97.016,715.56,97.789z"/>
<path opacity="0.9" fill="#6692A3" d="M725.56,106.045c0,0,4.268-4.268,11.006,0C736.565,106.045,731.399,104.698,725.56,106.045z"
	/>
<path opacity="0.9" fill="#6692A3" d="M672.56,107.045c0,0,4.268-4.268,11.006,0C683.565,107.045,678.399,105.698,672.56,107.045z"
	/>
<path fill="#6692A3" d="M699.184,110.414c0,0,4.801-4.801,12.382,0C711.565,110.414,705.754,108.898,699.184,110.414z"/>
<path opacity="0.6" fill="#6692A3" d="M702.184,95.301c0,0,1.836-1.835,4.733,0C706.917,95.301,704.695,94.721,702.184,95.301z"/>
<path opacity="0.7" fill="#6692A3" d="M267.626,100.224c0,0,3.079-3.079,7.939,0C275.565,100.224,271.839,99.252,267.626,100.224z"
	/>
<path opacity="0.8" fill="#6692A3" d="M281.56,105.045c0,0,4.268-4.268,11.006,0C292.565,105.045,287.399,103.698,281.56,105.045z"
	/>
<path opacity="0.7" fill="#6692A3" d="M297.56,99.789c0,0,2.449-2.449,6.316,0C303.875,99.789,300.911,99.016,297.56,99.789z"/>
<path opacity="0.9" fill="#6692A3" d="M307.56,108.045c0,0,4.268-4.268,11.006,0C318.565,108.045,313.399,106.698,307.56,108.045z"
	/>
<path opacity="0.9" fill="#6692A3" d="M254.56,109.045c0,0,4.268-4.268,11.006,0C265.565,109.045,260.399,107.698,254.56,109.045z"
	/>
<path fill="#6692A3" d="M281.184,112.414c0,0,4.801-4.801,12.382,0C293.565,112.414,287.754,110.898,281.184,112.414z"/>
<path opacity="0.6" fill="#6692A3" d="M284.184,97.301c0,0,1.835-1.835,4.733,0C288.917,97.301,286.695,96.721,284.184,97.301z"/>
<path opacity="0.7" fill="#6692A3" d="M359.626,100.224c0,0,3.079-3.079,7.939,0C367.565,100.224,363.839,99.252,359.626,100.224z"
	/>
<path opacity="0.8" fill="#6692A3" d="M373.56,105.045c0,0,4.268-4.268,11.006,0C384.565,105.045,379.399,103.698,373.56,105.045z"
	/>
<path opacity="0.7" fill="#6692A3" d="M389.56,99.789c0,0,2.449-2.449,6.316,0C395.875,99.789,392.911,99.016,389.56,99.789z"/>
<path opacity="0.9" fill="#6692A3" d="M399.56,108.045c0,0,4.268-4.268,11.006,0C410.565,108.045,405.399,106.698,399.56,108.045z"
	/>
<path opacity="0.9" fill="#6692A3" d="M346.56,109.045c0,0,4.268-4.268,11.006,0C357.565,109.045,352.399,107.698,346.56,109.045z"
	/>
<path fill="#6692A3" d="M373.184,112.414c0,0,4.801-4.801,12.382,0C385.565,112.414,379.754,110.898,373.184,112.414z"/>
<path opacity="0.6" fill="#6692A3" d="M376.184,97.301c0,0,1.835-1.835,4.733,0C380.917,97.301,378.695,96.721,376.184,97.301z"/>
<path opacity="0.7" fill="#6692A3" d="M330.56,101.789c0,0,2.449-2.449,6.316,0C336.875,101.789,333.911,101.016,330.56,101.789z"/>
<path opacity="0.6" fill="#6692A3" d="M331.184,95.301c0,0,1.835-1.835,4.733,0C335.917,95.301,333.695,94.721,331.184,95.301z"/>
<path opacity="0.7" fill="#6692A3" d="M424.56,101.789c0,0,2.449-2.449,6.316,0C430.875,101.789,427.911,101.016,424.56,101.789z"/>
<path opacity="0.6" fill="#6692A3" d="M425.184,95.301c0,0,1.835-1.835,4.733,0C429.917,95.301,427.695,94.721,425.184,95.301z"/>
<path opacity="0.7" fill="#6692A3" d="M509.56,99.789c0,0,2.448-2.449,6.315,0C515.875,99.789,512.91,99.016,509.56,99.789z"/>
<path opacity="0.6" fill="#6692A3" d="M510.184,93.301c0,0,1.836-1.835,4.733,0C514.917,93.301,512.695,92.721,510.184,93.301z"/>
<path opacity="0.7" fill="#6692A3" d="M586.56,98.789c0,0,2.448-2.449,6.315,0C592.875,98.789,589.91,98.016,586.56,98.789z"/>
<path opacity="0.6" fill="#6692A3" d="M587.184,92.301c0,0,1.836-1.835,4.733,0C591.917,92.301,589.695,91.721,587.184,92.301z"/>
<path opacity="0.7" fill="#6692A3" d="M663.56,101.789c0,0,2.448-2.449,6.315,0C669.875,101.789,666.91,101.016,663.56,101.789z"/>
<path opacity="0.6" fill="#6692A3" d="M664.184,95.301c0,0,1.836-1.835,4.733,0C668.917,95.301,666.695,94.721,664.184,95.301z"/>
<path opacity="0.7" fill="#6692A3" d="M743.56,101.789c0,0,2.448-2.449,6.315,0C749.875,101.789,746.91,101.016,743.56,101.789z"/>
<path opacity="0.6" fill="#6692A3" d="M744.184,95.301c0,0,1.836-1.835,4.733,0C748.917,95.301,746.695,94.721,744.184,95.301z"/>
</svg>
