<?xml version="1.0" encoding="utf-8"?>
<!-- Generator: Adobe Illustrator 16.0.0, SVG Export Plug-In . SVG Version: 6.00 Build 0)  -->
<!DOCTYPE svg PUBLIC "-//W3C//DTD SVG 1.1//EN" "http://www.w3.org/Graphics/SVG/1.1/DTD/svg11.dtd">
<svg version="1.1" id="Layer_1" xmlns="http://www.w3.org/2000/svg" xmlns:xlink="http://www.w3.org/1999/xlink" x="0px" y="0px"
	 width="1024px" height="290px" viewBox="0 0 1024 290" enable-background="new 0 0 1024 290" xml:space="preserve">
<polygon fill="#A0C2D8" points="341.8,205.431 374.136,224.403 390.964,222.423 410.926,242.716 434.353,224.072 448.707,227.042 
	470.649,212.029 482.857,208.729 496.55,192.726 507.171,191.077 518.326,180.188 341.8,181.673 "/>
<polygon fill="#BBD5E3" points="410.431,240.488 419.505,234.219 407.462,226.73 411.916,235.538 393.108,221.351 "/>
<polygon fill="#BBD5E3" points="471.308,210.957 481.207,208.317 463.225,202.873 "/>
<polygon fill="#BBD5E3" points="419.505,182.58 436.498,182.58 461.245,191.489 440.375,181.626 "/>
<polygon fill="#8CB7D1" points="374.136,224.155 380.24,217.392 374.136,209.967 380.24,208.978 374.961,193.8 390.964,222.176 "/>
<polygon fill="#8BB7D1" points="436.167,219.32 449.036,221.73 457.616,197.873 "/>
<polygon fill="#8BB7D1" points="483.282,207.903 483.282,197.017 490.116,195.779 479.393,185.055 496.55,192.479 "/>
<polygon fill="#8BB7D1" points="446.892,183.11 474.113,194.789 460.502,183.11 "/>
<polygon fill="#8BB7D1" points="436.167,218.876 440.375,203.697 426.764,186.539 456.79,201.058 436.828,218.876 "/>
<polygon fill="#8BB7D1" points="412.411,216.236 396.903,196.975 401.853,184.229 418.681,184.229 424.95,201.554 "/>
<polygon fill="#BCD3E5" points="753.712,178.634 742.617,204.748 714.157,226.525 690.4,212.172 681.244,197.324 666.645,206.48 
	649.814,199.799 643.135,192.869 619.13,177.774 "/>
<polygon fill="#C6DAE7" points="718.117,220.834 718.117,210.688 728.263,210.688 713.91,192.127 731.233,206.48 734.202,198.809 
	739.646,204.254 "/>
<polygon fill="#C6DAE7" points="627.048,180.743 647.588,194.107 633.977,180.743 637.318,185.693 "/>
<polygon fill="#C6DAE7" points="690.4,208.213 680.75,190.395 683.968,194.107 685.575,192.127 688.173,197.324 "/>
<polygon fill="#9EC0D7" points="699.063,206.48 691.639,204.748 690.4,184.455 713.91,222.253 707.229,217.369 705.001,217.369 "/>
<polygon fill="#9FC1D8" points="709.702,211.677 709.702,202.149 699.805,192.127 699.805,178.634 709.702,178.634 707.229,188.91 
	713.91,197.076 "/>
<polygon fill="#9EC0D7" points="741.626,203.354 733.212,192.127 726.779,192.127 713.91,182.476 724.057,185.693 735.191,184.455 
	737.172,192.127 740.637,180.743 751.279,180.743 "/>
<polygon fill="#9EC0D7" points="667.732,205.797 670.85,194.107 676.542,195.156 674.563,190.395 657.735,196.334 652.042,186.188 
	645.113,189.156 635.959,177.881 672.088,178.764 683.472,183.219 677.284,187.426 676.79,190.395 681.244,197.324 "/>
<linearGradient id="SVGID_1_" gradientUnits="userSpaceOnUse" x1="500.8394" y1="146.9736" x2="500.8394" y2="290">
	<stop  offset="0" style="stop-color:#1B96B0;stop-opacity:0.6"/>
	<stop  offset="1" style="stop-color:#1390CF;stop-opacity:0.2"/>
</linearGradient>
<rect x="247.432" y="146.974" fill="url(#SVGID_1_)" width="506.816" height="143.026"/>
<polygon fill="#BBD6E4" points="373.641,221.351 376.116,218.71 342.79,203.697 "/>
<polygon fill="#8BB7D1" points="390.964,206.142 370.341,181.229 400.203,181.229 395.583,193.687 "/>
<polygon fill="#8BB7D1" points="353.596,197.703 327.529,182.031 336.604,182.031 "/>
<polygon fill="#A0C2D8" points="247.432,181.008 423.959,181.008 247.432,179.523 "/>
<polygon fill="#A0C2D8" points="247.432,205.507 279.768,224.48 296.595,222.501 316.558,242.793 339.985,224.15 354.338,227.119 
	376.281,212.106 388.489,208.807 402.183,192.804 412.803,191.154 423.959,180.266 247.432,181.75 "/>
<polygon fill="#BBD6E4" points="279.272,221.428 281.747,218.789 248.422,203.775 "/>
<polygon fill="#BBD5E3" points="318.063,207.834 327.137,214.104 315.094,221.594 319.548,212.784 300.74,226.973 "/>
<polygon fill="#BBD5E3" points="376.94,211.034 386.839,208.395 368.856,202.95 "/>
<polygon fill="#BBD5E3" points="325.137,182.657 342.13,182.657 366.876,191.566 346.006,181.703 "/>
<polygon fill="#8CB7D1" points="279.768,224.232 285.872,217.469 279.768,210.045 285.872,209.055 280.593,193.876 296.595,222.252 
	"/>
<polygon fill="#8BB7D1" points="278.283,205.425 252.216,189.752 261.291,189.752 "/>
<polygon fill="#8BB7D1" points="341.8,224.397 354.668,226.807 363.247,202.95 "/>
<polygon fill="#8BB7D1" points="388.913,207.98 388.913,197.094 395.748,195.855 385.024,185.133 402.183,192.557 "/>
<polygon fill="#8BB7D1" points="352.523,183.188 379.745,194.866 366.134,183.188 "/>
<polygon fill="#8BB7D1" points="341.8,218.953 346.006,203.775 332.396,186.617 362.422,201.136 342.459,218.953 "/>
<polygon fill="#8BB7D1" points="296.595,209.219 275.973,184.309 305.834,184.309 301.215,196.763 "/>
<polygon fill="#8BB7D1" points="318.043,216.313 302.535,197.051 307.484,184.309 324.312,184.309 330.581,201.631 "/>
</svg>
